<?xml version="1.0" standalone="no"?>
<!DOCTYPE svg PUBLIC "-//W3C//DTD SVG 20010904//EN"
 "http://www.w3.org/TR/2001/REC-SVG-20010904/DTD/svg10.dtd">
<svg version="1.0" xmlns="http://www.w3.org/2000/svg"
 width="512.000000pt" height="512.000000pt" viewBox="0 0 512.000000 512.000000"
 preserveAspectRatio="xMidYMid meet">
<metadata>
Created by potrace 1.14, written by Peter Selinger 2001-2017
</metadata>
<g transform="translate(0.000000,512.000000) scale(0.100000,-0.100000)"
fill="#000000" stroke="none">
<path d="M62 4838 c-17 -17 -17 -1859 0 -1876 15 -15 61 -15 76 0 9 9 12 223
12 900 l0 888 488 0 487 0 180 -261 c114 -167 188 -264 203 -270 13 -5 755 -9
1743 -9 l1719 0 0 -1920 0 -1920 -2410 0 -2410 0 0 1123 c0 1076 -1 1125 -18
1140 -24 22 -45 21 -65 -1 -16 -17 -17 -113 -17 -1178 0 -889 3 -1163 12
-1172 17 -17 4979 -17 4996 0 17 17 17 4539 0 4556 -17 17 -4979 17 -4996 0z
m4368 -303 l0 -215 -1442 0 -1443 1 -147 214 -147 215 1590 0 1589 0 0 -215z"/>
<path d="M472 4508 c-7 -7 -12 -24 -12 -38 0 -48 9 -50 246 -50 237 0 254 3
254 50 0 47 -17 50 -254 50 -159 0 -225 -3 -234 -12z"/>
<path d="M1243 3766 c-209 -40 -377 -128 -524 -275 -126 -127 -214 -278 -260
-451 -20 -72 -23 -110 -23 -245 0 -135 3 -173 23 -245 94 -349 359 -614 707
-707 85 -23 120 -26 244 -27 175 0 274 21 418 89 318 151 522 437 563 788 10
83 10 126 0 208 -17 135 -30 169 -69 169 -49 0 -57 -20 -44 -108 46 -301 -30
-557 -230 -777 l-55 -60 -8 69 c-9 88 -27 138 -71 203 -43 62 -119 116 -195
138 l-57 16 37 71 c35 68 36 75 39 192 3 117 4 124 40 195 34 68 37 81 36 155
0 60 -6 94 -22 128 -29 66 -51 69 -143 21 l-74 -38 -185 -5 c-293 -8 -290 -5
-290 -336 0 -250 6 -285 55 -350 l25 -32 -40 -7 c-63 -11 -154 -61 -200 -111
-58 -63 -89 -136 -98 -230 l-7 -77 -62 66 c-281 301 -318 751 -89 1096 58 87
184 207 273 260 170 101 362 143 550 121 220 -26 415 -125 556 -281 55 -60 88
-74 115 -47 29 29 13 65 -62 141 -128 129 -288 222 -464 268 -100 27 -308 34
-409 15z m387 -953 c0 -115 -17 -163 -75 -210 -102 -85 -256 -59 -322 55 -24
41 -28 59 -31 149 l-4 103 216 0 216 0 0 -97z m108 -399 c102 -50 145 -137
140 -280 l-3 -89 -50 -27 c-27 -16 -93 -42 -145 -59 -83 -28 -112 -32 -235
-36 -168 -6 -264 13 -406 78 l-89 42 0 101 c1 149 39 222 145 272 49 23 57 24
321 24 l270 0 52 -26z"/>
<path d="M1292 2804 c-63 -44 22 -157 118 -157 48 0 96 27 121 66 26 43 21 78
-14 97 -28 15 -29 14 -60 -23 -38 -44 -61 -47 -81 -8 -14 25 -34 41 -55 41 -3
0 -17 -7 -29 -16z"/>
<path d="M2727 3762 c-16 -17 -17 -137 -17 -1514 0 -1436 1 -1496 18 -1511 17
-15 64 -17 474 -17 428 0 456 1 471 18 20 22 22 55 4 71 -10 7 -145 12 -438
13 l-424 3 -3 183 -2 182 432 0 c253 0 448 4 468 10 20 5 51 26 70 45 l35 36
3 177 c2 162 1 180 -17 209 -44 70 -26 67 -531 73 l-455 5 0 115 0 115 765 5
c852 6 796 1 841 73 18 29 19 47 17 209 l-3 177 -35 36 c-19 19 -50 40 -70 45
-21 6 -321 10 -777 10 l-743 0 0 115 0 115 448 0 c498 0 493 -1 539 69 22 32
23 44 23 200 0 195 -8 221 -80 259 -44 22 -48 22 -487 22 l-443 0 0 223 c0
160 -3 226 -12 235 -18 18 -53 15 -71 -6z m1603 -1361 c5 -11 10 -80 10 -155
0 -109 -3 -138 -16 -150 -14 -14 -96 -16 -760 -16 l-744 0 0 170 0 170 750 0
c731 0 750 0 760 -19z"/>
<path d="M2218 3249 c-21 -12 -24 -59 -6 -77 7 -7 24 -12 38 -12 32 0 50 17
50 46 0 44 -43 66 -82 43z"/>
<path d="M67 2832 c-34 -37 -15 -82 33 -82 49 0 68 51 32 83 -24 22 -45 21
-65 -1z"/>
<path d="M702 1634 c-26 -18 -29 -56 -6 -78 14 -14 92 -16 712 -16 623 0 700
2 720 16 31 21 26 64 -8 81 -19 10 -180 13 -710 13 -604 0 -688 -2 -708 -16z"/>
<path d="M697 1362 c-23 -26 -21 -58 5 -76 20 -14 104 -16 713 -16 752 0 735
-1 735 55 0 56 17 55 -741 55 -661 0 -697 -1 -712 -18z"/>
<path d="M698 829 c-21 -12 -24 -59 -6 -77 9 -9 183 -12 719 -12 630 0 709 2
723 16 21 21 20 47 -2 67 -17 16 -81 17 -718 17 -456 -1 -705 -4 -716 -11z"/>
<path d="M3802 808 c-27 -27 0 -88 40 -88 36 0 62 62 36 88 -15 15 -61 15 -76
0z"/>
<path d="M4002 808 c-18 -18 -15 -53 6 -71 16 -15 55 -17 334 -17 292 0 316 1
331 18 20 22 22 53 5 70 -17 17 -659 17 -676 0z"/>
</g>
</svg>
