<svg xmlns="http://www.w3.org/2000/svg" viewBox="0 0 64 64">
  <defs>
    <linearGradient id="bg" x1="0%" y1="0%" x2="100%" y2="100%">
      <stop offset="0%" style="stop-color:#1e293b"/>
      <stop offset="100%" style="stop-color:#0f172a"/>
    </linearGradient>
    <linearGradient id="doc" x1="0%" y1="0%" x2="100%" y2="100%">
      <stop offset="0%" style="stop-color:#f8fafc"/>
      <stop offset="100%" style="stop-color:#e2e8f0"/>
    </linearGradient>
  </defs>
  <rect width="64" height="64" rx="12" fill="url(#bg)"/>
  <g transform="translate(14, 6)">
    <path d="M4 0C1.79 0 0 1.79 0 4v40c0 2.21 1.79 4 4 4h32c2.21 0 4-1.79 4-4V12L28 0H4z" fill="url(#doc)"/>
    <path d="M28 0v8c0 2.21 1.79 4 4 4h8" fill="#cbd5e1"/>
    <rect x="6" y="20" width="20" height="3" rx="1.5" fill="#4f46e5"/>
    <rect x="6" y="28" width="28" height="2" rx="1" fill="#94a3b8"/>
    <rect x="6" y="34" width="24" height="2" rx="1" fill="#94a3b8"/>
    <rect x="6" y="40" width="16" height="2" rx="1" fill="#94a3b8"/>
  </g>
</svg>
